<svg id="Layer_1" data-name="Layer 1" xmlns="http://www.w3.org/2000/svg" viewBox="0 0 414 252"><defs><style>.cls-1,.cls-3{fill:#aba49c;}.cls-2{fill:#005ab3;}.cls-3,.cls-4,.cls-5,.cls-6{stroke:#000;stroke-miterlimit:10;}.cls-5{fill:#fee4a9;}.cls-5,.cls-6{stroke-width:2px;}</style></defs><rect class="cls-1" width="414" height="252"/><rect class="cls-2" x="9" y="5" width="397" height="20"/><path class="cls-3" d="M221,43.85a15,15,0,1,1-15-15.17A15.08,15.08,0,0,1,221,43.85Z"/><polygon class="cls-4" points="230.33 61.5 207.95 75.3 185.57 61.5 230.33 61.5"/><rect class="cls-5" x="210" y="78" width="190" height="154"/><rect class="cls-6" x="211" y="78" width="188" height="23"/><rect class="cls-5" x="210" y="130" width="190" height="31"/><rect class="cls-5" x="210" y="191" width="190" height="41"/><rect class="cls-5" x="16" y="78" width="190" height="154"/><rect class="cls-6" x="17" y="78" width="188" height="23"/><rect class="cls-5" x="16" y="130" width="190" height="31"/><rect class="cls-5" x="16" y="191" width="190" height="41"/></svg>