<svg id="Layer_1" data-name="Layer 1" xmlns="http://www.w3.org/2000/svg" viewBox="0 0 289 235"><defs><style>.cls-1{fill:#1c75bc;}.cls-2{fill:none;stroke:#231f20;stroke-miterlimit:10;}</style></defs><path class="cls-1" d="M49.86,132.06v4.88H45v13H40.34v-13H35.46v-4.88Z" transform="translate(0.5 0.5)"/><path class="cls-1" d="M61.81,149.91c-3,0-4.35-1.6-4.35-5.15v-7.54c0-3.55,1.4-5.16,4.35-5.16h7c3,0,4.35,1.61,4.35,5.16v7.54c0,3.55-1.4,5.15-4.35,5.15Zm5.35-4.66c1,0,1.38-.41,1.38-1.63v-5.26c0-1.22-.37-1.63-1.38-1.63H63.49c-1,0-1.37.41-1.37,1.63v5.26c0,1.22.34,1.63,1.37,1.63Z" transform="translate(0.5 0.5)"/><path class="cls-1" d="M85.79,149.91c-3,0-4.35-1.6-4.35-5.15v-12.7h4.65v11.56c0,1.22.35,1.63,1.38,1.63h3c1,0,1.38-.41,1.38-1.63V132.06h4.66v12.7c0,3.55-1.41,5.15-4.36,5.15Z" transform="translate(0.5 0.5)"/><path class="cls-1" d="M109.15,149.91c-3,0-4.36-1.6-4.36-5.15v-7.54c0-3.55,1.4-5.16,4.36-5.16h6.42c3,0,4.35,1.61,4.35,5.16v2.27h-4.48v-1.2c0-1.23-.37-1.63-1.38-1.63h-3.23c-1,0-1.38.4-1.38,1.63v5.4c0,1.23.34,1.63,1.38,1.63h3.23c1,0,1.38-.4,1.38-1.63v-1.37h4.48v2.44c0,3.55-1.4,5.15-4.35,5.15Z" transform="translate(0.5 0.5)"/><path class="cls-1" d="M138.66,132.06h4.66v17.85h-4.66v-6.78h-5.77v6.78h-4.66V132.06h4.66v6.18h5.77Z" transform="translate(0.5 0.5)"/><path class="cls-1" d="M178,131.42v5.22H173v13.92h-4.83V136.64h-5.05v-5.22Z" transform="translate(0.5 0.5)"/><path class="cls-1" d="M190.39,150.56c-3.06,0-4.52-1.72-4.52-5.52v-8.1c0-3.8,1.46-5.52,4.52-5.52h7.28c3.06,0,4.52,1.72,4.52,5.52V145c0,3.8-1.46,5.52-4.52,5.52Zm5.54-5c1,0,1.43-.44,1.43-1.75v-5.63c0-1.32-.38-1.75-1.43-1.75h-3.8c-1.07,0-1.43.43-1.43,1.75v5.63c0,1.31.36,1.75,1.43,1.75Z" transform="translate(0.5 0.5)"/><path class="cls-1" d="M222.28,131.42h4.65v19.14H223l-7.55-10.77v10.77h-4.64V131.42h4.08l7.35,10.47Z" transform="translate(0.5 0.5)"/><path class="cls-1" d="M240.62,145.89h8.89v4.67H235.79V131.42h13.5v4.68h-8.67v2.68h7.77v4h-7.77Z" transform="translate(0.5 0.5)"/><rect class="cls-1" x="149.75" y="139.78" width="10.37" height="4.52"/><rect class="cls-1" x="84.59" y="159.96" width="6.65" height="2.96"/><path class="cls-1" d="M171.46,162h3.47v.35c0,.39.19.53.74.53H179c.55,0,.74-.14.74-.53v-.3c0-.4-.15-.49-.74-.53l-4.71-.3c-1.86-.13-2.63-.61-2.63-1.89v-1.13c0-1.31.83-1.9,2.63-1.9h6.18c1.8,0,2.64.59,2.64,1.9v.68h-3.47v-.24c0-.39-.19-.52-.74-.52H176c-.55,0-.74.13-.74.52v.16c0,.38.19.49.74.53l4.7.3c1.87.1,2.64.6,2.64,1.89v1.29c0,1.3-.83,1.89-2.64,1.89H174.1c-1.8,0-2.64-.59-2.64-1.89Z" transform="translate(0.5 0.5)"/><path class="cls-1" d="M188.38,162.69H195v2.05H184.77v-8.4h10.08v2.06h-6.47v1.17h5.81v1.78h-5.81Z" transform="translate(0.5 0.5)"/><path class="cls-1" d="M208.08,164.74h-3.91l-2.33-2.7h-2v2.7h-3.6v-8.4h8.31c2.14,0,3,.65,3,2.19v1.14c0,1.3-.65,2-2.12,2.13Zm-8.25-6.49v1.94h3.24c.69,0,.9-.15.9-.64v-.65c0-.49-.21-.65-.9-.65Z" transform="translate(0.5 0.5)"/><path class="cls-1" d="M217.37,156.34h3.75l-5,8.4h-3.51l-5-8.4h3.94l2.87,5.4Z" transform="translate(0.5 0.5)"/><path class="cls-1" d="M222,156.34h3.67v8.4H222Z" transform="translate(0.5 0.5)"/><path class="cls-1" d="M230.61,164.74c-2.28,0-3.37-.76-3.37-2.42v-3.55c0-1.67,1.09-2.43,3.37-2.43h5c2.29,0,3.37.76,3.37,2.43v1.06h-3.47v-.56c0-.58-.28-.77-1.07-.77h-2.5c-.8,0-1.07.19-1.07.77v2.54c0,.58.27.77,1.07.77h2.5c.79,0,1.07-.19,1.07-.77v-.64H239v1.15c0,1.66-1.08,2.42-3.37,2.42Z" transform="translate(0.5 0.5)"/><path class="cls-1" d="M244,162.69h6.65v2.05H240.39v-8.4h10.08v2.06H244v1.17h5.81v1.78H244Z" transform="translate(0.5 0.5)"/><path class="cls-1" d="M34.47,164.5v-8.39h7.72c2,0,2.83.65,2.83,2.18v1.63c0,1.54-.84,2.19-2.83,2.19H37.82v2.39Zm3.35-4.3h3c.63,0,.83-.16.83-.65v-.79c0-.49-.2-.65-.83-.65h-3Z" transform="translate(0.5 0.5)"/><path class="cls-1" d="M49.19,164.5c-2.12,0-3.13-.75-3.13-2.42v-6h3.35v5.43c0,.58.25.77,1,.77h2.17c.75,0,1-.19,1-.77v-5.43h3.35v6c0,1.67-1,2.42-3.14,2.42Z" transform="translate(0.5 0.5)"/><path class="cls-1" d="M58.21,161.81h3.23v.34c0,.4.17.53.68.53h3.07c.51,0,.68-.13.68-.53v-.3c0-.39-.14-.49-.68-.52l-4.37-.3c-1.74-.14-2.45-.62-2.45-1.9V158c0-1.3.77-1.89,2.45-1.89h5.74c1.67,0,2.45.59,2.45,1.89v.69H65.78v-.24c0-.4-.17-.53-.68-.53H62.4c-.51,0-.68.13-.68.53v.15c0,.39.17.49.68.53l4.37.3c1.74.11,2.46.6,2.46,1.9v1.28c0,1.31-.78,1.89-2.46,1.89H60.66c-1.67,0-2.45-.58-2.45-1.89Z" transform="translate(0.5 0.5)"/><path class="cls-1" d="M78.09,156.11h3.35v8.39H78.09v-3.19H73.93v3.19H70.58v-8.39h3.35V159h4.16Z" transform="translate(0.5 0.5)"/><path class="cls-1" d="M103.9,162v.79c0,1.31-.82,1.89-2.58,1.89H92.61v-8.39H101c1.77,0,2.58.59,2.58,1.89v.61a1.44,1.44,0,0,1-1.12,1.56A1.55,1.55,0,0,1,103.9,162Zm-7.75-3.78v1.39h3.17c.54,0,.72-.13.72-.53v-.33c0-.4-.18-.53-.72-.53Zm4.22,3.49c0-.4-.18-.53-.72-.53h-3.5v1.57h3.5c.54,0,.72-.13.72-.53Z" transform="translate(0.5 0.5)"/><path class="cls-1" d="M108.51,164.63c-2.25,0-3.31-.75-3.31-2.42v-6h3.54v5.43c0,.58.26.77,1,.77h2.29c.79,0,1.05-.19,1.05-.77v-5.43h3.53v6c0,1.67-1.06,2.42-3.3,2.42Z" transform="translate(0.5 0.5)"/><path class="cls-1" d="M128.49,156.24v2.29h-3.7v6.1h-3.53v-6.1h-3.7v-2.29Z" transform="translate(0.5 0.5)"/><path class="cls-1" d="M139.82,156.24v2.29h-3.7v6.1h-3.53v-6.1h-3.7v-2.29Z" transform="translate(0.5 0.5)"/><path class="cls-1" d="M143.92,164.63c-2.25,0-3.31-.75-3.31-2.42v-3.55c0-1.67,1.06-2.42,3.31-2.42h5.33c2.24,0,3.31.75,3.31,2.42v3.55c0,1.67-1.07,2.42-3.31,2.42Zm4.05-2.19c.77,0,1.05-.19,1.05-.77V159.2c0-.58-.28-.77-1.05-.77h-2.78c-.78,0-1,.19-1,.77v2.47c0,.58.26.77,1,.77Z" transform="translate(0.5 0.5)"/><path class="cls-1" d="M162.36,156.24h3.41v8.39h-2.85l-5.53-4.72v4.72H154v-8.39h3l5.38,4.59Z" transform="translate(0.5 0.5)"/><path class="cls-1" d="M42.24,89.92l2.08-.18a8.09,8.09,0,0,0,.23,2,1.74,1.74,0,0,0,.65.87,2.11,2.11,0,0,0,1.23.32A1.89,1.89,0,0,0,48,92.3a2.36,2.36,0,0,0,.51-1.58,2.31,2.31,0,0,0-.29-1.17,6,6,0,0,0-1.52-1.36,12.06,12.06,0,0,1-2.06-1.74,4.45,4.45,0,0,1-.78-1.52,6.78,6.78,0,0,1-.28-2.05,6.27,6.27,0,0,1,1-3.76,3.23,3.23,0,0,1,2.78-1.41,3.4,3.4,0,0,1,2.84,1.4,6.85,6.85,0,0,1,1.17,3.94l-2.09.14c-.11-1.74-.75-2.6-1.94-2.6a1.57,1.57,0,0,0-1.29.5,2.08,2.08,0,0,0-.41,1.36A2,2,0,0,0,46,83.74a8.27,8.27,0,0,0,1.54,1.35,11.92,11.92,0,0,1,2,1.7,4.17,4.17,0,0,1,.78,1.48,6.86,6.86,0,0,1,.27,2,6.75,6.75,0,0,1-1.16,4.08,3.65,3.65,0,0,1-3.07,1.58A3.74,3.74,0,0,1,44,95.1a4.12,4.12,0,0,1-1.38-2.21A10.53,10.53,0,0,1,42.24,89.92Z" transform="translate(0.5 0.5)"/><path class="cls-1" d="M59.31,90.32H54.08v.32a4.13,4.13,0,0,0,.44,2,1.25,1.25,0,0,0,1.06.77q1,0,1.62-1.77l1.87.51A6.63,6.63,0,0,1,57.61,95a2.79,2.79,0,0,1-2,.92,2.9,2.9,0,0,1-2.5-1.59,8,8,0,0,1-1-4.32,11.39,11.39,0,0,1,1.13-5.18,3.49,3.49,0,0,1,3.17-2.24A2.54,2.54,0,0,1,58.6,84a8,8,0,0,1,.85,4.08A16.73,16.73,0,0,1,59.31,90.32Zm-1.76-2.11v-.33a4.41,4.41,0,0,0-.4-2.15,1.15,1.15,0,0,0-1-.7,1.42,1.42,0,0,0-1.15.81,5.51,5.51,0,0,0-.7,2.37Z" transform="translate(0.5 0.5)"/><path class="cls-1" d="M67.58,90.32H62.35v.32a4,4,0,0,0,.44,2,1.24,1.24,0,0,0,1.06.77q1,0,1.62-1.77l1.87.51A6.63,6.63,0,0,1,65.88,95a2.8,2.8,0,0,1-2,.92,2.92,2.92,0,0,1-2.5-1.59,8.13,8.13,0,0,1-1-4.32,11.26,11.26,0,0,1,1.13-5.18,3.48,3.48,0,0,1,3.17-2.24A2.54,2.54,0,0,1,66.86,84a7.94,7.94,0,0,1,.86,4.08A16.73,16.73,0,0,1,67.58,90.32Zm-1.76-2.11v-.33a4.54,4.54,0,0,0-.39-2.15,1.15,1.15,0,0,0-1-.7,1.44,1.44,0,0,0-1.16.81,5.66,5.66,0,0,0-.69,2.37Z" transform="translate(0.5 0.5)"/><path class="cls-1" d="M74.94,95.12H72.82L75.09,77.5h2.13l-.81,6.28a5.61,5.61,0,0,1,1.38-1.34,2.49,2.49,0,0,1,1.29-.37,1.74,1.74,0,0,1,1.5.86,4.3,4.3,0,0,1,.57,2.38,19.87,19.87,0,0,1-.21,2.35l-1,7.46H77.85l1-7.61c.1-.82.15-1.35.15-1.58a1.84,1.84,0,0,0-.25-1,.76.76,0,0,0-.66-.37,1.35,1.35,0,0,0-1,.59,5.41,5.41,0,0,0-1,2,27.93,27.93,0,0,0-.48,3Z" transform="translate(0.5 0.5)"/><path class="cls-1" d="M82.39,89.82a12.19,12.19,0,0,1,1.06-5.34,3.7,3.7,0,0,1,3.42-2.41,3.06,3.06,0,0,1,2.68,1.51,7.59,7.59,0,0,1,1,4.22,10.89,10.89,0,0,1-1.24,5.4,3.69,3.69,0,0,1-3.25,2.21,3.08,3.08,0,0,1-2.65-1.5A7.17,7.17,0,0,1,82.39,89.82Zm6.06-2.46a3.76,3.76,0,0,0-.45-2,1.32,1.32,0,0,0-1.14-.72,1.49,1.49,0,0,0-1.08.53A4.48,4.48,0,0,0,84.89,87a9.82,9.82,0,0,0-.38,2.72A4.42,4.42,0,0,0,85,92a1.37,1.37,0,0,0,1.16.8q.87,0,1.47-1.23A9.14,9.14,0,0,0,88.45,87.36Z" transform="translate(0.5 0.5)"/><path class="cls-1" d="M99.56,95.12h-2L97.17,87l-2.39,8.12h-2l-1-12.76H93.7l.55,8.57,2.43-8.57h1.95l.27,8.57,2.44-8.57h2.13Z" transform="translate(0.5 0.5)"/><path class="cls-1" d="M114.53,82h2.06l-2.2,16.61h-2.25l.75-5.61a3.87,3.87,0,0,1-1.13,1,2.35,2.35,0,0,1-1.14.28,2.27,2.27,0,0,1-2-1.15,7.09,7.09,0,0,1-.87-3.84,12.72,12.72,0,0,1,.61-4.06,6.4,6.4,0,0,1,1.51-2.67,2.75,2.75,0,0,1,1.89-.84c1.16,0,2,.72,2.53,2.16ZM109.9,89.2a3.56,3.56,0,0,0,.45,1.93,1.26,1.26,0,0,0,1.07.7,1.45,1.45,0,0,0,1-.48,4,4,0,0,0,.83-1.74,9.57,9.57,0,0,0,.36-2.67,4,4,0,0,0-.47-2.12,1.29,1.29,0,0,0-1.05-.75,1.37,1.37,0,0,0-1,.52,4.56,4.56,0,0,0-.86,1.84A10.07,10.07,0,0,0,109.9,89.2Z" transform="translate(0.5 0.5)"/><path class="cls-1" d="M118.76,82H121l-1,7.1q-.18,1.28-.18,1.59a1.55,1.55,0,0,0,.27.93.8.8,0,0,0,.65.36,1.33,1.33,0,0,0,.9-.38,3.59,3.59,0,0,0,1-1.39,10.44,10.44,0,0,0,.63-2.48l.9-5.73h2.25l-1.88,12h-2.11l.26-1.63a3.77,3.77,0,0,1-3,1.9,1.83,1.83,0,0,1-1.59-.83,3.92,3.92,0,0,1-.59-2.29,21.7,21.7,0,0,1,.27-2.47Z" transform="translate(0.5 0.5)"/><path class="cls-1" d="M128.72,82H131l-1.73,12H127Zm.66-4.57h2.25l-.43,2.94H129Z" transform="translate(0.5 0.5)"/><path class="cls-1" d="M137.06,89.44l2.17.53a6.81,6.81,0,0,1-1.6,3.21,3.34,3.34,0,0,1-2.43,1.06,2.91,2.91,0,0,1-2.49-1.33,6.43,6.43,0,0,1-1-3.79,11.18,11.18,0,0,1,.65-3.94,5.93,5.93,0,0,1,1.74-2.61,3.69,3.69,0,0,1,2.35-.89,2.88,2.88,0,0,1,2.31,1.06,4.84,4.84,0,0,1,1,3l-2.13.33c-.1-1.31-.55-2-1.33-2a1.52,1.52,0,0,0-1.07.53,4.51,4.51,0,0,0-.92,1.9,10.86,10.86,0,0,0-.4,3,3.1,3.1,0,0,0,.37,1.65,1.06,1.06,0,0,0,.88.57,1.44,1.44,0,0,0,1.05-.55A4.12,4.12,0,0,0,137.06,89.44Z" transform="translate(0.5 0.5)"/><path class="cls-1" d="M140.3,94l2.39-16.59h2.25L143.69,86,146.61,82h2.92l-3.34,4.35L148,94h-2.25l-1.14-5.57-1.52,2L142.54,94Z" transform="translate(0.5 0.5)"/><path class="cls-1" d="M149.27,94l2.39-16.59h2.25L151.51,94Z" transform="translate(0.5 0.5)"/><path class="cls-1" d="M154.38,82h2.23l.57,6q.21,2.3.24,3.24a31.72,31.72,0,0,1,1.2-3.9l2-5.33H163l-5.12,13.2a17.7,17.7,0,0,1-1.12,2.48,2.73,2.73,0,0,1-.88.93,2.19,2.19,0,0,1-1.11.29,4.33,4.33,0,0,1-1.6-.36l.2-2.42a2,2,0,0,0,.78.17c.68,0,1.25-.76,1.7-2.27Z" transform="translate(0.5 0.5)"/><path class="cls-1" d="M170.55,85.93l-2.23-.28A5,5,0,0,1,169.71,83a3.58,3.58,0,0,1,2.5-.91,3,3,0,0,1,2.38.93,3.53,3.53,0,0,1,.83,2.45,9.38,9.38,0,0,1-.08,1.14c-.05.4-.24,1.5-.58,3.31a19.62,19.62,0,0,0-.42,3.11,7.37,7.37,0,0,0,.23,1.78h-2.28a9.06,9.06,0,0,1-.17-1.41A4,4,0,0,1,171,94.69a2.2,2.2,0,0,1-1.26.43,2,2,0,0,1-1.66-1,4.54,4.54,0,0,1-.67-2.62,4.65,4.65,0,0,1,.79-2.91,3.71,3.71,0,0,1,2.64-1.23A7.5,7.5,0,0,0,173,86.9a4.85,4.85,0,0,0,.18-1.13,1.29,1.29,0,0,0-.32-.91,1.15,1.15,0,0,0-.87-.35C171.22,84.51,170.73,85,170.55,85.93Zm2.1,3.12a4.84,4.84,0,0,1-.54.15,4.26,4.26,0,0,0-2.06.75,1.69,1.69,0,0,0-.5,1.27,1.64,1.64,0,0,0,.28,1,.86.86,0,0,0,.72.39,1.44,1.44,0,0,0,.87-.32,2.31,2.31,0,0,0,.67-.9,10.34,10.34,0,0,0,.48-1.9Z" transform="translate(0.5 0.5)"/><path class="cls-1" d="M178.18,82.41h2.17L180.13,84a6.09,6.09,0,0,1,1.54-1.48,2.79,2.79,0,0,1,1.45-.42,1.91,1.91,0,0,1,1.63.86,4,4,0,0,1,.6,2.34,23.34,23.34,0,0,1-.24,2.47l-1,7h-2.29l1-7c.15-1.05.22-1.68.22-1.89a1.69,1.69,0,0,0-.26-1,.83.83,0,0,0-.69-.36,1.42,1.42,0,0,0-1,.45,3.88,3.88,0,0,0-1,1.5,16.61,16.61,0,0,0-.68,3.28l-.74,5.1h-2.28Z" transform="translate(0.5 0.5)"/><path class="cls-1" d="M194,94.84h-2.17l.2-1.35a4.37,4.37,0,0,1-1.21,1.27,2.35,2.35,0,0,1-3.35-.94,7.61,7.61,0,0,1-.8-3.91,12.18,12.18,0,0,1,1.16-5.43c.77-1.57,1.76-2.36,3-2.36a2.72,2.72,0,0,1,2.52,2l.95-6.43h2.29Zm-5.1-5.06a4,4,0,0,0,.44,2.09,1.29,1.29,0,0,0,1.08.74,1.45,1.45,0,0,0,1-.51,4.29,4.29,0,0,0,.86-1.8,9.42,9.42,0,0,0,.37-2.65,4.43,4.43,0,0,0-.47-2.23c-.32-.55-.69-.82-1.1-.82a1.38,1.38,0,0,0-1,.53,4.48,4.48,0,0,0-.86,1.86A10.16,10.16,0,0,0,188.89,89.78Z" transform="translate(0.5 0.5)"/><path class="cls-1" d="M207.89,89h-5.8v.35a4.24,4.24,0,0,0,.49,2.2,1.41,1.41,0,0,0,1.18.83c.76,0,1.35-.64,1.79-1.91l2.07.55A6.8,6.8,0,0,1,206,94a3.13,3.13,0,0,1-2.26,1A3.23,3.23,0,0,1,201,93.26a8.42,8.42,0,0,1-1.1-4.63,11.85,11.85,0,0,1,1.25-5.57,3.86,3.86,0,0,1,3.51-2.4,2.85,2.85,0,0,1,2.47,1.51,8.34,8.34,0,0,1,.94,4.38A17.28,17.28,0,0,1,207.89,89Zm-2-2.25v-.37a4.71,4.71,0,0,0-.43-2.3,1.29,1.29,0,0,0-1.13-.75,1.58,1.58,0,0,0-1.28.86,5.83,5.83,0,0,0-.77,2.56Z" transform="translate(0.5 0.5)"/><path class="cls-1" d="M212,84.85l-2.25-.31a5.69,5.69,0,0,1,1.4-2.89,3.45,3.45,0,0,1,2.53-1,2.93,2.93,0,0,1,2.4,1,4.07,4.07,0,0,1,.84,2.69,11.37,11.37,0,0,1-.08,1.26c-.05.44-.25,1.66-.59,3.64a23.81,23.81,0,0,0-.42,3.42,9,9,0,0,0,.23,2h-2.3a9.8,9.8,0,0,1-.17-1.56,4.26,4.26,0,0,1-1.13,1.39,2.12,2.12,0,0,1-1.27.48,2,2,0,0,1-1.68-1.09,5.29,5.29,0,0,1-.68-2.88,5.4,5.4,0,0,1,.8-3.2,3.6,3.6,0,0,1,2.67-1.35,7.18,7.18,0,0,0,2.2-.53,6.12,6.12,0,0,0,.19-1.25,1.47,1.47,0,0,0-.33-1,1.1,1.1,0,0,0-.88-.38C212.67,83.29,212.17,83.81,212,84.85Zm2.12,3.43a4.41,4.41,0,0,1-.54.17,4.08,4.08,0,0,0-2.08.82,2.2,2.2,0,0,0-.22,2.5.86.86,0,0,0,.72.43,1.33,1.33,0,0,0,.88-.36,2.28,2.28,0,0,0,.67-1,11,11,0,0,0,.49-2.08Z" transform="translate(0.5 0.5)"/><path class="cls-1" d="M217.59,90.83l2.24-.57a3.49,3.49,0,0,0,.74,1.62,1.59,1.59,0,0,0,1.2.46,1.54,1.54,0,0,0,1.15-.45,1.45,1.45,0,0,0,.44-1.06,1.28,1.28,0,0,0-.18-.7,2.84,2.84,0,0,0-.94-.65,9.17,9.17,0,0,1-2.57-1.73,4.19,4.19,0,0,1-.8-2.66,4.83,4.83,0,0,1,1-3.18,3.52,3.52,0,0,1,2.85-1.25q3.06,0,3.55,3.57l-2.13.59c-.25-1.08-.84-1.62-1.79-1.62a1.34,1.34,0,0,0-1,.36,1.32,1.32,0,0,0-.34.92,1.17,1.17,0,0,0,.27.78,4.92,4.92,0,0,0,1.35.79,6,6,0,0,1,2.22,1.51,4.08,4.08,0,0,1,.84,2.6,5.43,5.43,0,0,1-1.07,3.44A3.42,3.42,0,0,1,221.82,95Q218.34,95,217.59,90.83Z" transform="translate(0.5 0.5)"/><path class="cls-1" d="M228.84,81h2.3l-1.79,13.69h-2.3Zm.67-5.21h2.32l-.45,3.35h-2.3Z" transform="translate(0.5 0.5)"/><path class="cls-1" d="M231.66,94.66l2.46-18.9h2.31L234,94.66Z" transform="translate(0.5 0.5)"/><path class="cls-1" d="M236.92,81h2.3l.58,6.82c.14,1.74.22,3,.24,3.68A38.39,38.39,0,0,1,241.28,87l2-6.07h2.45l-5.28,15a21.9,21.9,0,0,1-1.14,2.83,3.09,3.09,0,0,1-.91,1,2.05,2.05,0,0,1-1.14.33,4,4,0,0,1-1.65-.41l.2-2.76a1.93,1.93,0,0,0,.81.2c.7,0,1.29-.86,1.75-2.58Z" transform="translate(0.5 0.5)"/><path class="cls-1" d="M55.63,107.78h2.12l.53,6c.13,1.53.21,2.61.22,3.23a34.48,34.48,0,0,1,1.14-3.88l1.89-5.31h2.25l-4.86,13.15a17.49,17.49,0,0,1-1.06,2.47,2.51,2.51,0,0,1-.83.92,1.9,1.9,0,0,1-1.06.3,3.92,3.92,0,0,1-1.51-.36l.19-2.42a1.69,1.69,0,0,0,.74.17c.65,0,1.19-.75,1.61-2.25Z" transform="translate(0.5 0.5)"/><path class="cls-1" d="M63.73,114.78a10.84,10.84,0,0,1,1.06-5,3.71,3.71,0,0,1,3.42-2.26,3.1,3.1,0,0,1,2.68,1.42,6.74,6.74,0,0,1,1,4A9.71,9.71,0,0,1,70.65,118,3.71,3.71,0,0,1,67.4,120a3.13,3.13,0,0,1-2.65-1.41A6.43,6.43,0,0,1,63.73,114.78Zm6.06-2.31a3.32,3.32,0,0,0-.45-1.86,1.34,1.34,0,0,0-1.14-.68,1.53,1.53,0,0,0-1.08.5,4.06,4.06,0,0,0-.89,1.72,8.38,8.38,0,0,0-.38,2.55,4,4,0,0,0,.46,2.09,1.34,1.34,0,0,0,1.16.74c.58,0,1.07-.38,1.47-1.15A8.11,8.11,0,0,0,69.79,112.47Z" transform="translate(0.5 0.5)"/><path class="cls-1" d="M74.15,107.78h2.13l-1,7.07c-.11.84-.17,1.37-.17,1.59a1.58,1.58,0,0,0,.25.92.76.76,0,0,0,.63.37,1.27,1.27,0,0,0,.85-.39A3.65,3.65,0,0,0,77.8,116a10.67,10.67,0,0,0,.6-2.48l.85-5.7h2.14l-1.78,12h-2l.24-1.63a3.58,3.58,0,0,1-2.8,1.9,1.73,1.73,0,0,1-1.51-.83,4,4,0,0,1-.56-2.29,22.6,22.6,0,0,1,.25-2.46Z" transform="translate(0.5 0.5)"/><path class="cls-1" d="M89.64,115.05l2.1.54a7.28,7.28,0,0,1-1.56,3.33A3.1,3.1,0,0,1,87.84,120a2.8,2.8,0,0,1-2.41-1.39,7.09,7.09,0,0,1-.92-3.93,12.47,12.47,0,0,1,.62-4.07,6.07,6.07,0,0,1,1.69-2.71,3.35,3.35,0,0,1,2.26-.92,2.72,2.72,0,0,1,2.24,1.1,5.28,5.28,0,0,1,1,3.06l-2.07.34c-.09-1.35-.52-2-1.28-2a1.44,1.44,0,0,0-1,.55,5,5,0,0,0-.88,2,11.7,11.7,0,0,0-.39,3.1,3.35,3.35,0,0,0,.36,1.71,1,1,0,0,0,.85.59,1.35,1.35,0,0,0,1-.57A4.3,4.3,0,0,0,89.64,115.05Z" transform="translate(0.5 0.5)"/><path class="cls-1" d="M95.86,110.82l-2.12-.28a5.15,5.15,0,0,1,1.32-2.63,3.31,3.31,0,0,1,2.38-.9,2.78,2.78,0,0,1,2.25.92,3.63,3.63,0,0,1,.79,2.45,9.44,9.44,0,0,1-.07,1.15c0,.4-.24,1.5-.56,3.31a21.65,21.65,0,0,0-.4,3.11,7.87,7.87,0,0,0,.22,1.79H97.51a9.07,9.07,0,0,1-.16-1.41,3.85,3.85,0,0,1-1.06,1.26,2,2,0,0,1-1.19.44,1.85,1.85,0,0,1-1.58-1,4.74,4.74,0,0,1-.64-2.63,4.85,4.85,0,0,1,.75-2.91,3.44,3.44,0,0,1,2.51-1.23,6.77,6.77,0,0,0,2.07-.48,5.49,5.49,0,0,0,.17-1.14,1.35,1.35,0,0,0-.3-.91,1,1,0,0,0-.83-.34C96.49,109.4,96,109.87,95.86,110.82Zm2,3.12a4.13,4.13,0,0,1-.51.15,4,4,0,0,0-2,.76,1.71,1.71,0,0,0-.47,1.26,1.72,1.72,0,0,0,.27,1,.8.8,0,0,0,.68.38,1.28,1.28,0,0,0,.83-.32,2.2,2.2,0,0,0,.63-.9,9.14,9.14,0,0,0,.45-1.9Z" transform="translate(0.5 0.5)"/><path class="cls-1" d="M103.1,107.29h2.06l-.22,1.62a6.07,6.07,0,0,1,1.47-1.49,2.51,2.51,0,0,1,1.37-.41,1.77,1.77,0,0,1,1.54.85,4.11,4.11,0,0,1,.58,2.35c0,.43-.08,1.25-.23,2.47l-.94,7.06h-2.18l1-7.06c.14-1.05.21-1.69.21-1.9a1.73,1.73,0,0,0-.25-1,.78.78,0,0,0-.66-.36,1.32,1.32,0,0,0-.89.44,4,4,0,0,0-1,1.51,18.14,18.14,0,0,0-.64,3.28l-.69,5.11h-2.17Z" transform="translate(0.5 0.5)"/><path class="cls-1" d="M116.82,107h2.1l-.18,1.35a5.15,5.15,0,0,1,1.26-1.29,2.21,2.21,0,0,1,1.2-.36,2.3,2.3,0,0,1,2,1.41,9.13,9.13,0,0,1,.77,4.23,12.14,12.14,0,0,1-1.37,6.05q-1.12,2-2.64,2c-1.06,0-1.87-.69-2.41-2.08l-.9,6.79h-2.2Zm1.34,7.53a5.14,5.14,0,0,0,.45,2.38c.31.56.66.84,1.06.84a1.3,1.3,0,0,0,1-.54,5.2,5.2,0,0,0,.84-2,11.38,11.38,0,0,0,.38-3,4.7,4.7,0,0,0-.43-2.25,1.26,1.26,0,0,0-1.07-.78,1.32,1.32,0,0,0-1,.53,4.83,4.83,0,0,0-.84,1.92A10.84,10.84,0,0,0,118.16,114.54Z" transform="translate(0.5 0.5)"/><path class="cls-1" d="M124.86,120.12l2.36-18.1h2.21l-2.36,18.1Z" transform="translate(0.5 0.5)"/><path class="cls-1" d="M132.33,110.73l-2.16-.3a5.43,5.43,0,0,1,1.35-2.77,3.29,3.29,0,0,1,2.42-1,2.83,2.83,0,0,1,2.3,1,3.92,3.92,0,0,1,.8,2.58,10.21,10.21,0,0,1-.08,1.2c-.05.43-.24,1.59-.56,3.49a22.85,22.85,0,0,0-.41,3.27,9.47,9.47,0,0,0,.22,1.89H134a10.29,10.29,0,0,1-.16-1.49,4.24,4.24,0,0,1-1.08,1.33,2,2,0,0,1-1.22.45,1.89,1.89,0,0,1-1.61-1,6.35,6.35,0,0,1,.12-5.83,3.47,3.47,0,0,1,2.55-1.29,6.72,6.72,0,0,0,2.11-.51,5.43,5.43,0,0,0,.18-1.2,1.39,1.39,0,0,0-.31-1,1,1,0,0,0-.84-.37C133,109.23,132.5,109.73,132.33,110.73Zm2,3.28a3,3,0,0,1-.52.16,3.88,3.88,0,0,0-2,.79,1.85,1.85,0,0,0-.48,1.34,1.92,1.92,0,0,0,.27,1.06.82.82,0,0,0,.69.4,1.28,1.28,0,0,0,.84-.34,2.29,2.29,0,0,0,.65-.94,11,11,0,0,0,.46-2Z" transform="translate(0.5 0.5)"/><path class="cls-1" d="M143.52,115.18l2.14.57a7.77,7.77,0,0,1-1.59,3.5,3.1,3.1,0,0,1-2.38,1.16,2.81,2.81,0,0,1-2.46-1.45,7.6,7.6,0,0,1-.94-4.14,13.54,13.54,0,0,1,.63-4.29,6.68,6.68,0,0,1,1.72-2.85,3.44,3.44,0,0,1,2.31-1,2.75,2.75,0,0,1,2.28,1.16,5.73,5.73,0,0,1,1,3.23l-2.1.35q-.15-2.13-1.32-2.13a1.43,1.43,0,0,0-1,.58,5.33,5.33,0,0,0-.9,2.07,12.89,12.89,0,0,0-.39,3.26,3.67,3.67,0,0,0,.36,1.8,1,1,0,0,0,.87.62,1.37,1.37,0,0,0,1-.6A4.63,4.63,0,0,0,143.52,115.18Z" transform="translate(0.5 0.5)"/><path class="cls-1" d="M154.69,114.66h-5.54V115a4.15,4.15,0,0,0,.46,2.11,1.36,1.36,0,0,0,1.13.79c.73,0,1.3-.61,1.72-1.83l2,.53a6.69,6.69,0,0,1-1.55,2.86,3,3,0,0,1-2.17,1,3.09,3.09,0,0,1-2.65-1.63,8.15,8.15,0,0,1-1-4.44,11.34,11.34,0,0,1,1.2-5.32,3.69,3.69,0,0,1,3.36-2.31,2.71,2.71,0,0,1,2.35,1.45,7.92,7.92,0,0,1,.91,4.19A15.8,15.8,0,0,1,154.69,114.66Zm-1.87-2.16v-.34a4.5,4.5,0,0,0-.42-2.21,1.21,1.21,0,0,0-1.08-.72,1.51,1.51,0,0,0-1.22.83,5.63,5.63,0,0,0-.74,2.44Z" transform="translate(0.5 0.5)"/><path class="cls-1" d="M160.67,107.75h2.43l-1.88,12.87H158.8Zm.72-4.9h2.43l-.46,3.15h-2.43Z" transform="translate(0.5 0.5)"/><path class="cls-1" d="M164.1,110.33l.39-2.58h1.26l.3-2.06,2.83-2.44-.7,4.5h1.54l-.38,2.58h-1.55l-.85,5.38c-.15,1-.22,1.53-.22,1.68a.94.94,0,0,0,.19.65.91.91,0,0,0,.68.21q.15,0,.84-.09l-.4,2.58a4.84,4.84,0,0,1-1.3.17,2.47,2.47,0,0,1-1.9-.67,2.85,2.85,0,0,1-.63-2,24,24,0,0,1,.33-2.74l.81-5.18Z" transform="translate(0.5 0.5)"/><path class="cls-1" d="M183.84,120.33H181.6l-.44-8.21-2.67,8.21h-2.22l-1.1-12.9h2.11l.62,8.66,2.71-8.66h2.19l.3,8.66,2.73-8.66h2.38Z" transform="translate(0.5 0.5)"/><path class="cls-1" d="M189.68,107.43h2.37l-1.84,12.9h-2.37Zm.7-4.91h2.38l-.45,3.16h-2.38Z" transform="translate(0.5 0.5)"/><path class="cls-1" d="M193,110l.39-2.59h1.23l.3-2.06,2.77-2.44-.68,4.5h1.5l-.37,2.59h-1.52l-.83,5.38c-.15,1-.22,1.53-.22,1.69a1,1,0,0,0,.19.65.87.87,0,0,0,.66.21c.1,0,.38,0,.83-.09l-.4,2.59a5,5,0,0,1-1.27.17,2.4,2.4,0,0,1-1.86-.68,2.89,2.89,0,0,1-.62-2,24.32,24.32,0,0,1,.33-2.75l.79-5.18Z" transform="translate(0.5 0.5)"/><path class="cls-1" d="M200.6,120.33h-2.37l2.53-17.81h2.39l-.91,6.34a6.33,6.33,0,0,1,1.55-1.35,3,3,0,0,1,1.44-.37,2,2,0,0,1,1.68.87,4.08,4.08,0,0,1,.63,2.41,19.23,19.23,0,0,1-.23,2.37l-1.08,7.54h-2.38l1.11-7.69c.11-.83.17-1.37.17-1.6a1.7,1.7,0,0,0-.29-1.05.86.86,0,0,0-.73-.37,1.53,1.53,0,0,0-1.14.59,5.17,5.17,0,0,0-1.1,2,25.2,25.2,0,0,0-.54,3Z" transform="translate(0.5 0.5)"/><path class="cls-1" d="M210.71,117.56h3.15l-.65,2.89h-3.15Z" transform="translate(0.5 0.5)"/><path class="cls-1" d="M217.05,117.56h3.16l-.66,2.89H216.4Z" transform="translate(0.5 0.5)"/><path class="cls-1" d="M223.4,117.56h3.15l-.65,2.89h-3.15Z" transform="translate(0.5 0.5)"/><path class="cls-1" d="M45.93,189.55l2.33-16h2.2l-2.32,16Z" transform="translate(0.5 0.5)"/><path class="cls-1" d="M50.74,180.3l.34-2.32h1.09l.26-1.85L54.88,174l-.6,4H55.6l-.32,2.32H53.93l-.73,4.83c-.13.87-.19,1.38-.19,1.52a.84.84,0,0,0,.17.57.74.74,0,0,0,.58.19c.09,0,.33,0,.73-.07l-.35,2.32a4.31,4.31,0,0,1-1.12.15,2.06,2.06,0,0,1-1.64-.61,2.58,2.58,0,0,1-.55-1.79,23.24,23.24,0,0,1,.29-2.46l.7-4.65Z" transform="translate(0.5 0.5)"/><path class="cls-1" d="M57.47,173.58h2.12l-.35,2.49a6.79,6.79,0,0,1-1,3.07,2.13,2.13,0,0,1-1.71.92l.2-1.44a1.54,1.54,0,0,0,.81-.62,3.54,3.54,0,0,0,.44-1.4h-1Z" transform="translate(0.5 0.5)"/><path class="cls-1" d="M58.52,186.31l2-.48a3,3,0,0,0,.68,1.37,1.53,1.53,0,0,0,1.09.39,1.47,1.47,0,0,0,1-.38,1.21,1.21,0,0,0,.4-.9.93.93,0,0,0-.17-.58,2.41,2.41,0,0,0-.85-.56,8.29,8.29,0,0,1-2.34-1.46,3.37,3.37,0,0,1-.72-2.24,3.87,3.87,0,0,1,.94-2.69,3.29,3.29,0,0,1,2.59-1.06c1.86,0,2.93,1,3.23,3l-1.94.5a1.55,1.55,0,0,0-1.62-1.37,1.29,1.29,0,0,0-.92.3,1,1,0,0,0-.31.78,1,1,0,0,0,.24.66,4.42,4.42,0,0,0,1.23.66,5.61,5.61,0,0,1,2,1.28,3.32,3.32,0,0,1,.76,2.2,4.33,4.33,0,0,1-1,2.9,3.2,3.2,0,0,1-2.58,1.16Q59.21,189.81,58.52,186.31Z" transform="translate(0.5 0.5)"/><path class="cls-1" d="M72.41,180.85l.34-2.13h1.08L74.1,177l2.44-2-.6,3.69h1.33L77,180.85H75.6l-.73,4.42c-.13.79-.2,1.25-.2,1.38a.73.73,0,0,0,.17.53.8.8,0,0,0,.59.17c.09,0,.33,0,.72-.07l-.34,2.13a4.86,4.86,0,0,1-1.13.14A2.2,2.2,0,0,1,73,189a2.27,2.27,0,0,1-.54-1.64,18.6,18.6,0,0,1,.28-2.25l.7-4.25Z" transform="translate(0.5 0.5)"/><path class="cls-1" d="M85.1,189.31h-2l-.39-6.74-2.36,6.74h-2l-1-10.59h1.86l.55,7.11,2.4-7.11h1.93l.26,7.11,2.41-7.11H89Z" transform="translate(0.5 0.5)"/><path class="cls-1" d="M90.26,178.72h2.1l-1.62,10.59h-2.1Zm.62-4H93l-.4,2.59H90.49Z" transform="translate(0.5 0.5)"/><path class="cls-1" d="M98.07,185.32l2,.46a5.9,5.9,0,0,1-1.51,2.83,3.24,3.24,0,0,1-2.27.94A2.8,2.8,0,0,1,94,188.37,5.46,5.46,0,0,1,93.1,185a9.37,9.37,0,0,1,.6-3.46,5.19,5.19,0,0,1,1.64-2.3,3.57,3.57,0,0,1,2.2-.78,2.78,2.78,0,0,1,2.16.93,4.13,4.13,0,0,1,1,2.6l-2,.29c-.09-1.15-.51-1.72-1.25-1.72a1.43,1.43,0,0,0-1,.47,3.94,3.94,0,0,0-.86,1.67,8.8,8.8,0,0,0-.37,2.63,2.55,2.55,0,0,0,.34,1.45,1,1,0,0,0,.83.5,1.39,1.39,0,0,0,1-.48A3.37,3.37,0,0,0,98.07,185.32Z" transform="translate(0.5 0.5)"/><path class="cls-1" d="M108.7,184.9h-5.27v.27a2.93,2.93,0,0,0,.44,1.71,1.3,1.3,0,0,0,1.07.63c.69,0,1.24-.49,1.64-1.47l1.88.43a5.24,5.24,0,0,1-1.47,2.31,3.16,3.16,0,0,1-2.06.77,3.06,3.06,0,0,1-2.53-1.32,5.8,5.8,0,0,1-1-3.59,8.08,8.08,0,0,1,1.14-4.3,3.56,3.56,0,0,1,3.2-1.85,2.65,2.65,0,0,1,2.24,1.17,5.59,5.59,0,0,1,.86,3.38A10.36,10.36,0,0,1,108.7,184.9Zm-1.78-1.74v-.28a3.22,3.22,0,0,0-.39-1.78,1.2,1.2,0,0,0-1-.58,1.48,1.48,0,0,0-1.17.67,4.05,4.05,0,0,0-.7,2Z" transform="translate(0.5 0.5)"/><path class="cls-1" d="M116.45,182.35l-2-.25a4.56,4.56,0,0,1,1.25-2.38,3.2,3.2,0,0,1,2.24-.81,2.74,2.74,0,0,1,2.14.83,3.2,3.2,0,0,1,.74,2.22,7.53,7.53,0,0,1-.07,1c0,.37-.22,1.36-.52,3a18.27,18.27,0,0,0-.38,2.82,7.06,7.06,0,0,0,.21,1.62h-2a9,9,0,0,1-.15-1.28,3.63,3.63,0,0,1-1,1.14,2,2,0,0,1-1.13.39,1.8,1.8,0,0,1-1.5-.89,4.16,4.16,0,0,1-.6-2.37,4.24,4.24,0,0,1,.71-2.63,3.3,3.3,0,0,1,2.38-1.11,6.87,6.87,0,0,0,2-.44,4.91,4.91,0,0,0,.16-1,1.17,1.17,0,0,0-.29-.82,1,1,0,0,0-.78-.31C117.05,181.07,116.61,181.5,116.45,182.35Zm1.89,2.82a3,3,0,0,1-.49.14A3.82,3.82,0,0,0,116,186a1.73,1.73,0,0,0-.19,2,.75.75,0,0,0,.64.35,1.26,1.26,0,0,0,.78-.29,2,2,0,0,0,.6-.81,7.9,7.9,0,0,0,.43-1.72Z" transform="translate(0.5 0.5)"/><path class="cls-1" d="M121.43,187.27l2-.47a2.78,2.78,0,0,0,.66,1.33,1.5,1.5,0,0,0,1.06.38,1.46,1.46,0,0,0,1-.37,1.17,1.17,0,0,0,.39-.87.94.94,0,0,0-.16-.57,2.6,2.6,0,0,0-.84-.54,8.17,8.17,0,0,1-2.28-1.42,3.29,3.29,0,0,1-.71-2.19,3.76,3.76,0,0,1,.92-2.61,3.22,3.22,0,0,1,2.53-1c1.81,0,2.87,1,3.16,2.93l-1.9.49A1.53,1.53,0,0,0,125.7,181a1.22,1.22,0,0,0-.9.3,1,1,0,0,0-.3.75.93.93,0,0,0,.23.65,4.8,4.8,0,0,0,1.2.65,5.22,5.22,0,0,1,2,1.24,3.17,3.17,0,0,1,.74,2.14,4.21,4.21,0,0,1-1,2.83,3.12,3.12,0,0,1-2.52,1.12Q122.1,190.67,121.43,187.27Z" transform="translate(0.5 0.5)"/><path class="cls-1" d="M140,178.75l-.32,2.31h-1.53l-1.34,9.35h-2.14l1.33-9.35h-1.2l.33-2.31h1.2l.17-1.19a9.36,9.36,0,0,1,.5-2.23,2,2,0,0,1,2-1.28,4.84,4.84,0,0,1,2.09.52l-.41,2.25a3.14,3.14,0,0,0-1.26-.38.57.57,0,0,0-.5.27,3.79,3.79,0,0,0-.3,1.22l-.11.82Z" transform="translate(0.5 0.5)"/><path class="cls-1" d="M142.59,182.06l-2.1-.27a4.61,4.61,0,0,1,1.3-2.45,3.35,3.35,0,0,1,2.36-.85,2.86,2.86,0,0,1,2.24.87,3.28,3.28,0,0,1,.78,2.29,8.11,8.11,0,0,1-.07,1.07c0,.38-.23,1.41-.55,3.1a17.89,17.89,0,0,0-.4,2.91,7,7,0,0,0,.22,1.68h-2.15a8.2,8.2,0,0,1-.15-1.33,3.62,3.62,0,0,1-1.06,1.18,2.08,2.08,0,0,1-1.18.41,1.87,1.87,0,0,1-1.57-.92,5.22,5.22,0,0,1,.12-5.18,3.45,3.45,0,0,1,2.48-1.15,7.65,7.65,0,0,0,2.06-.45,4.79,4.79,0,0,0,.17-1.07,1.21,1.21,0,0,0-.3-.85,1.09,1.09,0,0,0-.82-.32C143.22,180.73,142.76,181.17,142.59,182.06Zm2,2.92a4.35,4.35,0,0,1-.51.14,4,4,0,0,0-1.94.7,1.54,1.54,0,0,0-.47,1.19,1.59,1.59,0,0,0,.26.94.82.82,0,0,0,.68.36,1.34,1.34,0,0,0,.82-.3,2,2,0,0,0,.62-.84,8.58,8.58,0,0,0,.46-1.78Z" transform="translate(0.5 0.5)"/><path class="cls-1" d="M147.81,187.15l2.08-.48a3,3,0,0,0,.69,1.37,1.59,1.59,0,0,0,1.12.39,1.56,1.56,0,0,0,1.08-.38,1.22,1.22,0,0,0,.41-.9,1,1,0,0,0-.17-.59,2.75,2.75,0,0,0-.88-.56,9.06,9.06,0,0,1-2.4-1.47,3.4,3.4,0,0,1-.74-2.26,3.92,3.92,0,0,1,1-2.72,3.44,3.44,0,0,1,2.65-1.06c1.9,0,3,1,3.31,3l-2,.5a1.6,1.6,0,0,0-1.67-1.38,1.3,1.3,0,0,0-.94.31,1,1,0,0,0-.32.78,1,1,0,0,0,.25.67,4.66,4.66,0,0,0,1.26.67,5.83,5.83,0,0,1,2.08,1.28,3.35,3.35,0,0,1,.77,2.22,4.37,4.37,0,0,1-1,2.93,3.34,3.34,0,0,1-2.65,1.16Q148.51,190.67,147.81,187.15Z" transform="translate(0.5 0.5)"/><path class="cls-1" d="M157.05,181.09l.35-2.34h1.12l.27-1.86,2.5-2.2-.61,4.06H162l-.33,2.34h-1.38l-.75,4.87c-.13.87-.19,1.38-.19,1.52a.85.85,0,0,0,.17.59.83.83,0,0,0,.6.19l.74-.08-.35,2.34a4.62,4.62,0,0,1-1.16.15,2.15,2.15,0,0,1-1.68-.61,2.6,2.6,0,0,1-.55-1.8,20.64,20.64,0,0,1,.29-2.48l.71-4.69Z" transform="translate(0.5 0.5)"/><path class="cls-1" d="M168.7,182.9l-1.93-.25a4.48,4.48,0,0,1,1.2-2.36,3,3,0,0,1,2.17-.82,2.56,2.56,0,0,1,2.06.84,3.22,3.22,0,0,1,.72,2.2,9.26,9.26,0,0,1-.06,1c-.05.37-.22,1.36-.51,3a19,19,0,0,0-.37,2.8,7.45,7.45,0,0,0,.2,1.61h-2a8.81,8.81,0,0,1-.15-1.27,3.42,3.42,0,0,1-1,1.13,1.87,1.87,0,0,1-1.09.39,1.69,1.69,0,0,1-1.44-.88,4.23,4.23,0,0,1-.58-2.36,4.28,4.28,0,0,1,.69-2.62,3.11,3.11,0,0,1,2.29-1.1,6.32,6.32,0,0,0,1.89-.44,4.83,4.83,0,0,0,.16-1,1.17,1.17,0,0,0-.28-.81,1,1,0,0,0-.76-.32C169.28,181.62,168.86,182.05,168.7,182.9Zm1.82,2.8a2.45,2.45,0,0,1-.47.14,3.58,3.58,0,0,0-1.78.68,1.5,1.5,0,0,0-.43,1.13,1.56,1.56,0,0,0,.24.91.73.73,0,0,0,.62.34,1.19,1.19,0,0,0,.76-.28,2,2,0,0,0,.57-.81,8.07,8.07,0,0,0,.42-1.71Z" transform="translate(0.5 0.5)"/><path class="cls-1" d="M173.51,187.79l1.92-.47a2.88,2.88,0,0,0,.63,1.33,1.42,1.42,0,0,0,1,.37,1.34,1.34,0,0,0,1-.37,1.13,1.13,0,0,0,.38-.86.94.94,0,0,0-.16-.57,2.41,2.41,0,0,0-.8-.54,8.13,8.13,0,0,1-2.21-1.41,3.35,3.35,0,0,1-.68-2.17,3.83,3.83,0,0,1,.89-2.6,3.09,3.09,0,0,1,2.44-1c1.75,0,2.77,1,3.05,2.92l-1.83.49a1.48,1.48,0,0,0-1.53-1.33,1.18,1.18,0,0,0-.87.3,1,1,0,0,0-.29.74.93.93,0,0,0,.23.65,4.52,4.52,0,0,0,1.16.64,5.39,5.39,0,0,1,1.91,1.23,3.28,3.28,0,0,1,.71,2.13,4.23,4.23,0,0,1-.92,2.81,3,3,0,0,1-2.43,1.12Q174.16,191.17,173.51,187.79Z" transform="translate(0.5 0.5)"/><path class="cls-1" d="M192.6,191.57h-2.15l.2-1.31a4.25,4.25,0,0,1-1.19,1.23,2.4,2.4,0,0,1-1.28.36,2.35,2.35,0,0,1-2-1.26,7.31,7.31,0,0,1-.79-3.79,11.5,11.5,0,0,1,1.15-5.26c.76-1.51,1.74-2.27,2.93-2.27a2.67,2.67,0,0,1,2.48,1.91l1-6.22h2.26Zm-5-4.9a4,4,0,0,0,.44,2,1.28,1.28,0,0,0,1.07.71,1.44,1.44,0,0,0,1-.49,4.11,4.11,0,0,0,.86-1.74,8.88,8.88,0,0,0,.37-2.57,4.22,4.22,0,0,0-.48-2.16,1.3,1.3,0,0,0-1.08-.79,1.35,1.35,0,0,0-1,.51,4.42,4.42,0,0,0-.86,1.8A9.62,9.62,0,0,0,187.55,186.67Z" transform="translate(0.5 0.5)"/><path class="cls-1" d="M196.65,179.54h2.25l-1.75,12H194.9Zm.66-4.58h2.26l-.43,2.95h-2.25Z" transform="translate(0.5 0.5)"/><path class="cls-1" d="M202.57,183l-2.21-.27a4.76,4.76,0,0,1,1.38-2.54,3.57,3.57,0,0,1,2.47-.87,3.08,3.08,0,0,1,2.36.89,3.4,3.4,0,0,1,.82,2.37,8.63,8.63,0,0,1-.08,1.1c-.05.39-.24,1.46-.58,3.2a19.51,19.51,0,0,0-.41,3,7.39,7.39,0,0,0,.22,1.73h-2.25a8.57,8.57,0,0,1-.17-1.36,3.83,3.83,0,0,1-1.1,1.21,2.17,2.17,0,0,1-1.25.43,2,2,0,0,1-1.64-1,4.28,4.28,0,0,1-.67-2.53,4.4,4.4,0,0,1,.79-2.82,3.74,3.74,0,0,1,2.61-1.19,7.49,7.49,0,0,0,2.16-.46,4.65,4.65,0,0,0,.18-1.1,1.25,1.25,0,0,0-.32-.88,1.14,1.14,0,0,0-.86-.33C203.23,181.58,202.75,182,202.57,183Zm2.08,3a2.56,2.56,0,0,1-.54.15,4.24,4.24,0,0,0-2,.73,1.6,1.6,0,0,0-.49,1.22,1.58,1.58,0,0,0,.28,1,.87.87,0,0,0,.71.37,1.38,1.38,0,0,0,.86-.31,2.1,2.1,0,0,0,.66-.87,9.64,9.64,0,0,0,.48-1.84Z" transform="translate(0.5 0.5)"/><path class="cls-1" d="M208.38,191.57,210.79,175h2.27l-2.42,16.61Z" transform="translate(0.5 0.5)"/><path class="cls-1" d="M214.59,179.54h2.25l-1.75,12h-2.25Zm.66-4.58h2.26l-.43,2.95h-2.25Z" transform="translate(0.5 0.5)"/><path class="cls-1" d="M219.09,179.54h2.15L221,181.1a6.08,6.08,0,0,1,1.52-1.43,2.83,2.83,0,0,1,1.44-.4,1.87,1.87,0,0,1,1.6.82,3.75,3.75,0,0,1,.61,2.27,20.36,20.36,0,0,1-.25,2.39l-1,6.82h-2.27l1-6.82c.15-1,.22-1.63.22-1.83a1.61,1.61,0,0,0-.26-1,.82.82,0,0,0-.68-.34,1.41,1.41,0,0,0-.94.43,3.85,3.85,0,0,0-1,1.46,16.92,16.92,0,0,0-.67,3.16l-.72,4.94h-2.26Z" transform="translate(0.5 0.5)"/><path class="cls-1" d="M227.05,192.22l2.4.5a1.61,1.61,0,0,0,.3,1.07,1.13,1.13,0,0,0,.92.36,1.68,1.68,0,0,0,1-.28,1.85,1.85,0,0,0,.59-.84,11.8,11.8,0,0,0,.42-2.25l.06-.57a3.19,3.19,0,0,1-2.41,1.41,2.34,2.34,0,0,1-2-1.23,6.77,6.77,0,0,1-.8-3.67,12.64,12.64,0,0,1,.58-4.05,6,6,0,0,1,1.5-2.56,2.8,2.8,0,0,1,1.88-.84,2.21,2.21,0,0,1,1.5.61,4.32,4.32,0,0,1,1.08,1.79l.29-2.13h2.12l-1.36,10a32.16,32.16,0,0,1-.73,4.05,4.09,4.09,0,0,1-1.33,2.17,3.86,3.86,0,0,1-2.41.67,3.62,3.62,0,0,1-2.6-.78,4,4,0,0,1-1-3Zm2.67-5.83a4.28,4.28,0,0,0,.48,2.19,1.12,1.12,0,0,0,1,.62,1.49,1.49,0,0,0,1-.5,4.13,4.13,0,0,0,.87-1.69,8.3,8.3,0,0,0,.37-2.54,4.14,4.14,0,0,0-.47-2.12,1.35,1.35,0,0,0-1.1-.77,1.31,1.31,0,0,0-.93.48,4.58,4.58,0,0,0-.85,1.78A8.88,8.88,0,0,0,229.72,186.39Z" transform="translate(0.5 0.5)"/><path class="cls-1" d="M237.82,188.43h2.23l-.47,3.14h-2.22Zm1.84-1.08h-1.25l.71-8.48.56-3.91h2.39l-.63,4.2Z" transform="translate(0.5 0.5)"/><path class="cls-1" d="M216.72,34.73l2.17,1a7.21,7.21,0,0,1-1.69,3.74,4,4,0,0,1-2.91,1.19,4.14,4.14,0,0,1-3.52-1.89,9.9,9.9,0,0,1-1.55-5.88,10.44,10.44,0,0,1,1.56-6.11,4.24,4.24,0,0,1,3.65-1.92,4,4,0,0,1,3.12,1.44,6.57,6.57,0,0,1,1.32,3l-2.22.73a3.46,3.46,0,0,0-.85-1.9,2,2,0,0,0-1.49-.66,2.33,2.33,0,0,0-2,1.2,7.7,7.7,0,0,0-.78,4,8.22,8.22,0,0,0,.76,4.1,2.27,2.27,0,0,0,2,1.22,1.93,1.93,0,0,0,1.53-.78A5.33,5.33,0,0,0,216.72,34.73Z" transform="translate(0.5 0.5)"/><path class="cls-1" d="M230.82,40.35h-2.43l-1-3.46H223l-.92,3.46h-2.38L224,25.07h2.38Zm-4.13-6.05-1.53-5.67-1.5,5.67Z" transform="translate(0.5 0.5)"/><path class="cls-1" d="M232.06,40.35V25.19h2.23V37.76h5.58v2.59Z" transform="translate(0.5 0.5)"/><path class="cls-1" d="M241.53,40.35V25.19h2.24V37.76h5.58v2.59Z" transform="translate(0.5 0.5)"/><path class="cls-1" d="M144.18,40.85H142l-.87-3.43h-4l-.82,3.43h-2.15L138,25.72h2.14Zm-3.71-6-1.38-5.61-1.35,5.61Z" transform="translate(0.5 0.5)"/><path class="cls-1" d="M145.26,40.85V25.72h2l4.09,10.1V25.72h1.88V40.85h-2l-4-9.87v9.87Z" transform="translate(0.5 0.5)"/><path class="cls-1" d="M154.9,33.37a13.06,13.06,0,0,1,.64-4.45,6,6,0,0,1,1.68-2.61,3.84,3.84,0,0,1,2.52-.85,4.05,4.05,0,0,1,3.49,2,10.46,10.46,0,0,1,1.35,5.79,10.56,10.56,0,0,1-1.43,5.94,4,4,0,0,1-6.82,0A10.4,10.4,0,0,1,154.9,33.37Zm2.07-.1a7.68,7.68,0,0,0,.8,3.92,2.3,2.3,0,0,0,2,1.3,2.27,2.27,0,0,0,2-1.29,7.79,7.79,0,0,0,.79-4,7.7,7.7,0,0,0-.77-3.89,2.21,2.21,0,0,0-4,0A7.73,7.73,0,0,0,157,33.27Z" transform="translate(0.5 0.5)"/><path class="cls-1" d="M168.41,40.85V28.28h-3V25.72h7.93v2.56h-3V40.85Z" transform="translate(0.5 0.5)"/><path class="cls-1" d="M174.69,40.85V25.72h2v6h4v-6h2V40.85h-2V34.23h-4v6.62Z" transform="translate(0.5 0.5)"/><path class="cls-1" d="M184.76,40.85V25.72h7.41v2.56h-5.4v3.35h5v2.55h-5v4.11h5.59v2.56Z" transform="translate(0.5 0.5)"/><path class="cls-1" d="M194.07,40.85V25.72h4.24a4.93,4.93,0,0,1,2.33.4,2.94,2.94,0,0,1,1.14,1.42,5.86,5.86,0,0,1,.45,2.41,5.29,5.29,0,0,1-.68,2.86,3,3,0,0,1-2,1.36,5.73,5.73,0,0,1,1.07,1.26,19.79,19.79,0,0,1,1.16,2.47l1.21,3h-2.41l-1.46-3.29a20.91,20.91,0,0,0-1.07-2.24,1.61,1.61,0,0,0-.59-.62,2.32,2.32,0,0,0-1-.17h-.41v6.32Zm2-8.73h1.49a6.07,6.07,0,0,0,1.75-.15,1.19,1.19,0,0,0,.6-.61,2.57,2.57,0,0,0,.24-1.21,2.44,2.44,0,0,0-.24-1.16,1.22,1.22,0,0,0-.63-.6,6.27,6.27,0,0,0-1.63-.11h-1.58Z" transform="translate(0.5 0.5)"/><path class="cls-1" d="M86.3,41.94V29.67H83.53v-2.5h7.41v2.5H88.17V41.94Z" transform="translate(0.5 0.5)"/><path class="cls-1" d="M92.16,41.94V27.17H94V33h3.7V27.17h1.87V41.94H97.74V35.48H94v6.46Z" transform="translate(0.5 0.5)"/><path class="cls-1" d="M101.56,41.94V27.17h6.92v2.5h-5v3.27h4.68v2.49h-4.68v4h5.21v2.5Z" transform="translate(0.5 0.5)"/><path class="cls-1" d="M110.24,41.94V27.17h4a4.45,4.45,0,0,1,2.17.4A2.94,2.94,0,0,1,117.45,29a6,6,0,0,1,.42,2.35,5.38,5.38,0,0,1-.64,2.79,2.79,2.79,0,0,1-1.82,1.33,5.74,5.74,0,0,1,1,1.23,20.65,20.65,0,0,1,1.08,2.41l1.13,2.88h-2.25L115,38.72a23,23,0,0,0-1-2.18,1.56,1.56,0,0,0-.56-.6,2,2,0,0,0-.94-.17h-.39v6.17Zm1.88-8.52h1.4a5.35,5.35,0,0,0,1.63-.15,1.12,1.12,0,0,0,.56-.59,2.61,2.61,0,0,0,.22-1.18,2.44,2.44,0,0,0-.22-1.13,1.17,1.17,0,0,0-.59-.59,5.93,5.93,0,0,0-1.53-.11h-1.47Z" transform="translate(0.5 0.5)"/><path class="cls-1" d="M119.64,41.94V27.17h6.92v2.5h-5v3.27h4.68v2.49h-4.68v4h5.21v2.5Z" transform="translate(0.5 0.5)"/><path class="cls-1" d="M38.65,43.52V27.3h2.23V43.52Z" transform="translate(0.5 0.5)"/><path class="cls-1" d="M42.45,38.23l2.18-.31C44.88,40,45.68,41,47,41a2.06,2.06,0,0,0,1.59-.63,2.25,2.25,0,0,0,.58-1.58,2.07,2.07,0,0,0-.2-.94,1.56,1.56,0,0,0-.62-.63,14,14,0,0,0-2-.84,6.14,6.14,0,0,1-2.09-1.13,4.17,4.17,0,0,1-1-1.59,5.76,5.76,0,0,1-.39-2.13,5.47,5.47,0,0,1,.5-2.39,3.63,3.63,0,0,1,1.38-1.6A4.12,4.12,0,0,1,46.92,27a3.79,3.79,0,0,1,3,1.27,5.65,5.65,0,0,1,1.16,3.64l-2.23.14a3.15,3.15,0,0,0-.64-1.82,1.77,1.77,0,0,0-1.38-.52,2,2,0,0,0-1.39.45A1.46,1.46,0,0,0,45,31.32a1.54,1.54,0,0,0,.44,1.11,5.81,5.81,0,0,0,2,1,7.67,7.67,0,0,1,2.44,1.24A4.08,4.08,0,0,1,51,36.33a7,7,0,0,1,.4,2.48,5.75,5.75,0,0,1-1.09,3.55A3.93,3.93,0,0,1,47,43.8Q42.92,43.8,42.45,38.23Z" transform="translate(0.5 0.5)"/><path class="cls-1" d="M53.34,43.52V27.3h2.17L60,38.13V27.3h2.08V43.52H59.87L55.42,33V43.52Z" transform="translate(0.5 0.5)"/><path class="cls-1" d="M64.37,27.3h2.12v2.24a8.15,8.15,0,0,1-.37,2.8A3.17,3.17,0,0,1,64.61,34l-.41-1.29a2,2,0,0,0,.9-.85,3.43,3.43,0,0,0,.29-1.48h-1Z" transform="translate(0.5 0.5)"/><path class="cls-1" d="M71.24,43.52V30.05H68V27.3h8.78v2.75H73.47V43.52Z" transform="translate(0.5 0.5)"/><path class="cls-1" d="M43.64,64V57.77l-3.32-8.61h2.15L44.6,55l2.1-5.88h2.1l-3.33,8.63V64Z" transform="translate(0.5 0.5)"/><path class="cls-1" d="M49.34,56.68a13.76,13.76,0,0,1,.58-4.37,5.87,5.87,0,0,1,1.53-2.56,3.32,3.32,0,0,1,2.28-.85,3.63,3.63,0,0,1,3.17,2,10.9,10.9,0,0,1,1.23,5.69,11,11,0,0,1-1.3,5.83,3.48,3.48,0,0,1-3.09,1.86,3.52,3.52,0,0,1-3.11-1.84A11,11,0,0,1,49.34,56.68Zm1.88-.1A8,8,0,0,0,52,60.43a2.09,2.09,0,0,0,1.79,1.28,2.06,2.06,0,0,0,1.79-1.27,8.22,8.22,0,0,0,.71-3.91,8.12,8.12,0,0,0-.69-3.82,2,2,0,0,0-1.81-1.24,2.09,2.09,0,0,0-1.82,1.25A8.14,8.14,0,0,0,51.22,56.58Z" transform="translate(0.5 0.5)"/><path class="cls-1" d="M59.55,49.16h1.82v8.05c0,1.25,0,2.06.07,2.44A2.75,2.75,0,0,0,62,61.17a1.48,1.48,0,0,0,1.2.54,1.46,1.46,0,0,0,1-.38,2,2,0,0,0,.54-1,17.11,17.11,0,0,0,.15-2.9V49.16h1.83V57a27.3,27.3,0,0,1-.24,4.32,4,4,0,0,1-1.07,2.16,3,3,0,0,1-2.2.83,3.27,3.27,0,0,1-2.21-.69,3.89,3.89,0,0,1-1.16-1.92,19.43,19.43,0,0,1-.35-4.58Z" transform="translate(0.5 0.5)"/><path class="cls-1" d="M79.77,59.09l1.91-.28c.22,1.93.92,2.89,2.11,2.89a1.77,1.77,0,0,0,1.4-.59,2.17,2.17,0,0,0,.5-1.47,1.93,1.93,0,0,0-.17-.87,1.55,1.55,0,0,0-.54-.6,13.49,13.49,0,0,0-1.76-.77,5.62,5.62,0,0,1-1.83-1,4,4,0,0,1-.92-1.49,5.57,5.57,0,0,1-.35-2,5.43,5.43,0,0,1,.44-2.22,3.41,3.41,0,0,1,1.22-1.5,3.46,3.46,0,0,1,1.91-.5,3.24,3.24,0,0,1,2.67,1.18,5.51,5.51,0,0,1,1,3.39l-2,.14a3.1,3.1,0,0,0-.55-1.7,1.53,1.53,0,0,0-1.22-.49,1.67,1.67,0,0,0-1.22.42,1.43,1.43,0,0,0-.43,1,1.48,1.48,0,0,0,.39,1,4.87,4.87,0,0,0,1.78.92,6.77,6.77,0,0,1,2.14,1.15,4,4,0,0,1,1,1.56,6.77,6.77,0,0,1,.35,2.31,5.62,5.62,0,0,1-1,3.31,3.38,3.38,0,0,1-3,1.34Q80.17,64.28,79.77,59.09Z" transform="translate(0.5 0.5)"/><path class="cls-1" d="M89.3,64V48.92h2v5.94H95.1V48.92h2V64h-2v-6.6H91.25V64Z" transform="translate(0.5 0.5)"/><path class="cls-1" d="M98.67,56.56a13.36,13.36,0,0,1,.62-4.45,6,6,0,0,1,1.63-2.6,3.67,3.67,0,0,1,2.45-.85,3.91,3.91,0,0,1,3.39,2,10.68,10.68,0,0,1,1.31,5.78,10.84,10.84,0,0,1-1.39,5.92,3.86,3.86,0,0,1-6.63,0A10.68,10.68,0,0,1,98.67,56.56Zm2-.1a7.79,7.79,0,0,0,.78,3.91,2.06,2.06,0,0,0,3.83,0,8,8,0,0,0,.76-4,7.94,7.94,0,0,0-.74-3.89,2.19,2.19,0,0,0-1.93-1.26,2.24,2.24,0,0,0-1.95,1.27A8,8,0,0,0,100.68,56.46Z" transform="translate(0.5 0.5)"/><path class="cls-1" d="M109.58,48.92h2V57.1a24.37,24.37,0,0,0,.08,2.48,2.78,2.78,0,0,0,.61,1.54,1.64,1.64,0,0,0,1.29.55,1.58,1.58,0,0,0,1.11-.39,2,2,0,0,0,.58-1.07,16.05,16.05,0,0,0,.16-2.94V48.92h2v7.93a26.67,26.67,0,0,1-.25,4.39,3.88,3.88,0,0,1-1.15,2.2,3.27,3.27,0,0,1-2.35.84,3.65,3.65,0,0,1-2.36-.7,3.81,3.81,0,0,1-1.23-2,18.33,18.33,0,0,1-.39-4.65Z" transform="translate(0.5 0.5)"/><path class="cls-1" d="M119.43,64V49h1.95V61.46h4.87V64Z" transform="translate(0.5 0.5)"/><path class="cls-1" d="M127.63,48.92h3.57a4.25,4.25,0,0,1,2,.38,3.72,3.72,0,0,1,1.27,1.31,7.44,7.44,0,0,1,.91,2.38,16.77,16.77,0,0,1,.33,3.63A14.84,14.84,0,0,1,135.4,60a7.84,7.84,0,0,1-.87,2.29,3.72,3.72,0,0,1-1.29,1.27,3.84,3.84,0,0,1-1.94.43h-3.67Zm2,2.55v10h1.47a3.13,3.13,0,0,0,1.37-.22,1.76,1.76,0,0,0,.69-.69,4.52,4.52,0,0,0,.45-1.44,15.32,15.32,0,0,0,.17-2.61,15.07,15.07,0,0,0-.18-2.64,4,4,0,0,0-.56-1.52,1.82,1.82,0,0,0-.93-.74,6.69,6.69,0,0,0-1.59-.13Z" transform="translate(0.5 0.5)"/><path class="cls-1" d="M149.12,63V47.87h3.06L154,58.16l1.82-10.29h3.07V63H157V51.07L155,63h-2l-2-11.88V63Z" transform="translate(0.5 0.5)"/><path class="cls-1" d="M170.07,63h-2.22L167,59.53h-4.06L162.07,63H159.9l3.94-15.08H166Zm-3.76-6-1.4-5.6L163.54,57Z" transform="translate(0.5 0.5)"/><path class="cls-1" d="M171.16,63V47.87h2v6.71l4.14-6.71h2.76l-3.82,5.87,4,9.21h-2.65l-2.79-7.09-1.66,2.53V63Z" transform="translate(0.5 0.5)"/><path class="cls-1" d="M181.36,63V47.87h7.51v2.55H183.4v3.34h5.09V56.3H183.4v4.1h5.66V63Z" transform="translate(0.5 0.5)"/><path class="cls-1" d="M200.42,62.68V47.29h2l4.2,10.28V47.29h1.93V62.68h-2.08l-4.13-10v10Z" transform="translate(0.5 0.5)"/><path class="cls-1" d="M210.33,55.08a13.2,13.2,0,0,1,.67-4.53,6,6,0,0,1,1.73-2.65,4,4,0,0,1,2.58-.87,4.19,4.19,0,0,1,3.6,2.07A10.57,10.57,0,0,1,220.3,55a10.7,10.7,0,0,1-1.47,6A4,4,0,0,1,215.32,63a4.06,4.06,0,0,1-3.52-1.9A10.54,10.54,0,0,1,210.33,55.08Zm2.14-.1a7.65,7.65,0,0,0,.82,4,2.23,2.23,0,0,0,4.07,0,8,8,0,0,0,.8-4,7.8,7.8,0,0,0-.78-4,2.29,2.29,0,0,0-4.11,0A7.81,7.81,0,0,0,212.47,55Z" transform="translate(0.5 0.5)"/><path class="cls-1" d="M223.38,62.68l-2.46-15.39h2.13l1.54,10.58,1.87-10.58h2.48l1.8,10.76,1.58-10.76h2.09l-2.5,15.39h-2.2l-2.06-11.51-2,11.51Z" transform="translate(0.5 0.5)"/><path class="cls-1" d="M242.45,58.21h-1.56v-.67a7.71,7.71,0,0,1,.26-2.19,6.31,6.31,0,0,1,1-1.85,9.8,9.8,0,0,0,1-1.55,2.69,2.69,0,0,0,.16-1,2.51,2.51,0,0,0-.42-1.5,1.26,1.26,0,0,0-1.06-.59c-.92,0-1.49.86-1.7,2.58l-1.58-.33a5.86,5.86,0,0,1,1-3.24,2.69,2.69,0,0,1,2.26-1.26A2.76,2.76,0,0,1,244,47.9a5.74,5.74,0,0,1,.6,5,12.31,12.31,0,0,1-1.38,2.36,4.83,4.83,0,0,0-.68,1.25A7.53,7.53,0,0,0,242.45,58.21Zm-1.56,4v-3h1.72v3Z" transform="translate(0.5 0.5)"/><rect class="cls-1" x="200.04" y="66.37" width="32.52" height="2.93"/><path class="cls-1" d="M114,212.61a14.48,14.48,0,1,1-14.48-14.48A14.48,14.48,0,0,1,114,212.61ZM99.53,200.27a12.34,12.34,0,1,0,12.35,12.34A12.34,12.34,0,0,0,99.53,200.27Z" transform="translate(0.5 0.5)"/><path class="cls-1" d="M94.31,208.18c0-.47.07-1,.08-1.45h0a30.39,30.39,0,0,0,5.35.43,30.74,30.74,0,0,0,5.16-.4h0c0,.48,0,1,.08,1.42h0a32.33,32.33,0,0,1-5.39.41,33.63,33.63,0,0,1-5.28-.39Z" transform="translate(0.5 0.5)"/><path class="cls-1" d="M100.78,219.67c0,.11,0,.25,0,.37a1.67,1.67,0,0,1-.51,1.25s0,.43,0,.44a14.41,14.41,0,0,1-1.47,0s.06-.41,0-.43a1.7,1.7,0,0,1-.52-1.26,2.2,2.2,0,0,1,0-.37Z" transform="translate(0.5 0.5)"/><path class="cls-1" d="M108.87,216.74s.18.45.42.88a.57.57,0,0,1-.45.74,40.4,40.4,0,0,1-9.22.94c-4.21,0-7.81-.32-9.35-1a.53.53,0,0,1-.33-.77c.24-.39.42-.85.44-.85a45.08,45.08,0,0,0,9.29.93A56.2,56.2,0,0,0,108.87,216.74Z" transform="translate(0.5 0.5)"/><path class="cls-1" d="M94.45,206.29a.64.64,0,0,1,.32-.67,5.09,5.09,0,0,1,2.17-.46s.07.24.1.23c.4,0,.87,0,1.31,0,0,0,0,.31,0,.31h2.42s0-.32.09-.32c.44,0,.86,0,1.25.07,0,0,.07-.24.11-.24a7.38,7.38,0,0,1,2,.38c.71.3.59.74.59.74a23.1,23.1,0,0,1-5.16.43A22,22,0,0,1,94.45,206.29Z" transform="translate(0.5 0.5)"/><polygon class="cls-1" points="100.78 205.84 99.46 205.84 99.51 202.7 100.7 202.7 100.78 205.84"/><path class="cls-1" d="M98.29,204.62c0,.42,0,.42,0,.42-.4,0-.94.08-.94,0-.12-1-.62-1.33-.54-1.79.12-.7.75-1,1.86-1v1.26C97.73,203.66,98.25,204.33,98.29,204.62Z" transform="translate(0.5 0.5)"/><path class="cls-1" d="M100.89,204.61c0,.42,0,.42,0,.42a7.12,7.12,0,0,0,.94,0c.12-1,.62-1.32.54-1.78-.12-.7-.75-1-1.86-1v1.25C101.45,203.65,100.93,204.32,100.89,204.61Z" transform="translate(0.5 0.5)"/><path class="cls-1" d="M90.59,216.27c2.6-2.34,3.2-4,3.64-7.66h0a36.69,36.69,0,0,0,5.4.4,38,38,0,0,0,5.37-.38h0c.42,3.6,1.21,5.87,3.67,7.67h0a38.4,38.4,0,0,1-9,.91,36.79,36.79,0,0,1-9.07-.94Zm7.62-4.59a.69.69,0,0,0-.07-.41.45.45,0,0,0-.35-.22h0a.48.48,0,0,0,.44-.5A.55.55,0,0,0,98,210a.76.76,0,0,0-.48-.14l-.89,0-.11,2.39.89,0C97.94,212.3,98.19,212.1,98.21,211.68Zm-.75-1.43a.28.28,0,0,1,.21.1.32.32,0,0,1,.07.22.33.33,0,0,1-.1.23.28.28,0,0,1-.18.06h-.33l0-.61Zm-.06,1a.3.3,0,0,1,.32.35c0,.23-.13.33-.36.32h-.28l0-.68Zm2.39.75L99,212l0-.69.74,0v-.37l-.74,0,0-.59.8,0V210l-1.3,0-.07,2.39,1.33,0Zm1.57,0h-.75l0-2h-.5l0,2.39h1.25Zm1.48-.09-.75,0-.11-2-.5,0,.14,2.38,1.24-.07Zm-7.52,2.64-.45-.35c-.15-.13-.23-.25-.21-.37a.23.23,0,0,1,.29-.22q.22,0,.18.39l.49.06a.6.6,0,0,0-.6-.8c-.52-.07-.81.12-.87.56a.68.68,0,0,0,.19.56l.44.37q.24.19.21.36c0,.18-.11.26-.28.24a.26.26,0,0,1-.23-.16.67.67,0,0,1,0-.29l-.5-.07s0,.07,0,.1c-.06.45.14.7.62.76a1.14,1.14,0,0,0,.57,0,.66.66,0,0,0,.35-.54A.72.72,0,0,0,95.32,214.49Zm1.44,1.27,0-.82.75-1.52-.51,0-.44,1-.29-1-.55,0,.54,1.6,0,.83Zm2-1.09s-.17-.12-.48-.31-.25-.22-.25-.35a.23.23,0,0,1,.27-.24c.15,0,.23.12.22.36l.49,0c0-.48-.18-.72-.68-.74s-.79.2-.81.65a.69.69,0,0,0,.25.53l.47.32c.18.12.26.23.26.35s-.1.27-.26.26a.25.25,0,0,1-.25-.13,1,1,0,0,1,0-.3h-.5v.1c0,.45.21.68.69.7a1.22,1.22,0,0,0,.56-.1.61.61,0,0,0,.3-.57A.68.68,0,0,0,98.79,214.67Zm.35-.8h.56v2h.5v-2h.56v-.4H99.14Zm3.2,1.57-.83,0,0-.7.74,0v-.37l-.74,0,0-.59.81,0v-.37l-1.31,0,.07,2.39,1.33,0Zm.68-1.51.6,1.8.48,0,.31-1.88.15,1.84.48,0-.19-2.38-.78.06-.26,1.65h0l-.5-1.59-.81.07.2,2.38.49,0Z" transform="translate(0.5 0.5)"/><path class="cls-1" d="M117.28,208,119,212.7h0V208h1.28v6.94h-1.6L117,210h0v4.86h-1.28V208Z" transform="translate(0.5 0.5)"/><path class="cls-1" d="M122.35,212.48v.42c0,.61.16,1.21.66,1.21s.63-.34.71-1h1.2A1.71,1.71,0,0,1,123,215c-2,0-2-1.5-2-2.8s.27-2.71,2.08-2.71c1.56,0,1.91,1,1.91,2.66v.3Zm1.37-.8c0-.8-.13-1.24-.68-1.24s-.69.55-.69,1v.2Z" transform="translate(0.5 0.5)"/><path class="cls-1" d="M125.32,209.66h1.34l.62,3.71h0l.66-3.71h1.45l.69,3.71h0l.64-3.71H132l-1.13,5.23h-1.53l-.69-3.71h0l-.66,3.71h-1.55Z" transform="translate(0.5 0.5)"/><path class="cls-1" d="M136,208l.91,2.68h0l1-2.68h1.51l-1.8,4.21v2.73h-1.4v-2.73L134.46,208Z" transform="translate(0.5 0.5)"/><path class="cls-1" d="M141,209.52c1.61,0,2.06.94,2.06,2.76S142.57,215,141,215s-2.07-.94-2.07-2.75S139.5,209.52,141,209.52Zm0,4.59c.54,0,.71-.53.71-1.83s-.17-1.84-.71-1.84-.72.77-.72,1.84S140.37,214.11,141,214.11Z" transform="translate(0.5 0.5)"/><path class="cls-1" d="M143.81,209.66h1.29v.7h0a1.34,1.34,0,0,1,1.2-.84l.25,0v1.29l-.42,0a.9.9,0,0,0-1,.94v3.14h-1.35Z" transform="translate(0.5 0.5)"/><path class="cls-1" d="M148.44,208v3.66h0l1.35-2h1.48l-1.51,2.06,1.73,3.17H150l-1.11-2.15-.48.62v1.53H147.1V208Z" transform="translate(0.5 0.5)"/><path class="cls-1" d="M158.34,208v1.15h-1.51v5.79h-1.4V209.1h-1.52V208Z" transform="translate(0.5 0.5)"/><path class="cls-1" d="M159.33,212.48v.42c0,.61.17,1.21.67,1.21s.63-.34.71-1h1.2c0,1.22-.63,1.9-1.89,1.9-2,0-2-1.5-2-2.8s.28-2.71,2.08-2.71c1.57,0,1.92,1,1.92,2.66v.3Zm1.38-.8c0-.8-.13-1.24-.68-1.24s-.7.55-.7,1v.2Z" transform="translate(0.5 0.5)"/><path class="cls-1" d="M162.74,208h1.34v6.94h-1.34Z" transform="translate(0.5 0.5)"/><path class="cls-1" d="M166.17,212.48v.42c0,.61.16,1.21.66,1.21s.63-.34.71-1h1.2c-.05,1.22-.63,1.9-1.89,1.9-1.95,0-2-1.5-2-2.8s.27-2.71,2.08-2.71c1.56,0,1.91,1,1.91,2.66v.3Zm1.37-.8c0-.8-.13-1.24-.68-1.24s-.69.55-.69,1v.2Z" transform="translate(0.5 0.5)"/><path class="cls-1" d="M169.52,209.66h1.28v.55h0a1.28,1.28,0,0,1,1.19-.69c1.1,0,1.6.81,1.6,2.76s-.5,2.75-1.6,2.75a1.25,1.25,0,0,1-1.13-.63h0v2.2h-1.34Zm2,4.34c.58,0,.7-.59.7-1.72s-.12-1.73-.7-1.73-.71.59-.71,1.73S171,214,171.57,214Z" transform="translate(0.5 0.5)"/><path class="cls-1" d="M174.38,208h1.34v2.25h0a1.37,1.37,0,0,1,1.27-.68c.84,0,1.33.46,1.33,1.49v3.88H177v-3.61c0-.52-.17-.73-.57-.73s-.71.29-.71.87v3.47h-1.34Z" transform="translate(0.5 0.5)"/><path class="cls-1" d="M181.12,209.52c1.62,0,2.06.94,2.06,2.76s-.52,2.75-2.06,2.75-2.06-.94-2.06-2.75S179.59,209.52,181.12,209.52Zm0,4.59c.55,0,.72-.53.72-1.83s-.17-1.84-.72-1.84-.72.77-.72,1.84S180.46,214.11,181.12,214.11Z" transform="translate(0.5 0.5)"/><path class="cls-1" d="M183.9,209.66h1.29v.61h0a1.43,1.43,0,0,1,1.33-.75c.83,0,1.33.46,1.33,1.49v3.88h-1.34v-3.61c0-.52-.18-.73-.58-.73s-.71.29-.71.87v3.47H183.9Z" transform="translate(0.5 0.5)"/><path class="cls-1" d="M189.91,212.48v.42c0,.61.16,1.21.66,1.21s.63-.34.71-1h1.2a1.71,1.71,0,0,1-1.89,1.9c-2,0-2-1.5-2-2.8s.27-2.71,2.08-2.71c1.56,0,1.91,1,1.91,2.66v.3Zm1.37-.8c0-.8-.13-1.24-.68-1.24s-.69.55-.69,1v.2Z" transform="translate(0.5 0.5)"/><rect class="cls-2" x="0.5" y="0.5" width="288" height="234"/></svg>